<svg height="64" viewBox="0 0 32 32" width="64" xmlns="http://www.w3.org/2000/svg"
     xmlns:xlink="http://www.w3.org/1999/xlink">
  <clipPath id="a">
    <path
      d="m76 2v46h-22v23h-18.419263c-.07818.665694-.141485 1.332869-.205737 2-1.151162 12.530963 1.036422 24.087546 6.0625 33.96875l1.6875 3.03125c1.011403 1.81678 2.191241 3.52297 3.4375 5.1875 1.244725 1.66248 1.685716 2.58262 2.46875 3.6875 13.288661 14.93583 33.098223 22.125 55.96875 22.125 50.64836 0 93.63299-22.43799 112.65625-72.84375 13.49677 1.38497 26.44343-2.075892 32.34375-13.59375-9.39863-5.423665-21.47837-3.685274-28.4375-.1875l18.4375-52.375-72 46h-23v-46z"/>
  </clipPath>
  <g transform="matrix(.67942288 0 0 .67942288 -2.086149 13.781817)">
    <path
      d="m30.30535-3.5530496h4.222408v4.31634891h2.134982c.985902 0 1.999989-.17564188 2.933674-.49201221.458781-.15556394.973737-.37204865 1.426289-.64431138-.59605-.77821852-.900357-1.76085802-.989957-2.72945232-.121642-1.3174037.144093-3.0321746 1.035745-4.0632715l.44385-.513373.5289.4251571c1.331644 1.0698649 2.451552 2.5647884 2.648948 4.2689765 1.603414-.4716388 3.485913-.3600846 4.899247.4556178l.579832.3345685-.305197.5956538c-1.195276 2.33286327-3.6941 3.0555017-6.137147 2.9276283-3.655717 9.1052261-11.614632 13.4159381-21.264778 13.4159381-4.985583 0-9.559756-1.86371-12.164498-6.2870646-.152716-.2747686-.283494-.5620828-.4221902-.8442821-.8804778-1.9470795-1.1729154-4.080084-.9745286-6.2113085l.059536-.63837862h3.6106208v-4.31634888h4.222408v-4.2224074h8.444814v-4.2224079h5.066976v8.4448153"
      fill="#394d54"/>
    <g clip-path="url(#a)" transform="matrix(.18465877 0 0 .18465877 3.070472 -11.997864)">
      <g id="b">
        <g id="c" transform="translate(0 -22.866)">
          <path d="m123.85901 3.8110794h19.81751v19.8169706h-19.81751z" fill="#00acd3"/>
          <path d="m123.85901 26.676485h19.81751v19.818043h-19.81751z" fill="#20c2ef"/>
          <path id="d"
                d="m126.29235 21.976904v-16.5157492m2.97185 16.5157492v-16.5157492m3.00184 16.5157492v-16.5157492m3.00344 16.5157492v-16.5157492m3.00292 16.5157492v-16.5157492m2.97131 16.5157492v-16.5157492"
                stroke="#394d54" stroke-width="1.56"/>
          <use height="100%" transform="translate(0 22.866)" width="100%" xlink:href="#d"/>
        </g>
        <use height="100%" transform="matrix(1 0 0 -1 22.866 4.572651)" width="100%" xlink:href="#c"/>
      </g>
      <use height="100%" transform="translate(-91.464 45.732)" width="100%" xlink:href="#b"/>
      <use height="100%" transform="translate(-45.732 45.732)" width="100%" xlink:href="#b"/>
      <use height="100%" transform="translate(0 45.732)" width="100%" xlink:href="#b"/>
    </g>
    <path clip-path="url(#a)"
          d="m221.57014 54.379649c1.53332-11.915247-7.38383-21.274779-12.91407-25.71836-6.37269 7.367765-7.36295 26.677556 2.63498 34.807431-5.57952 4.956117-17.33731 9.448435-29.37574 9.448435h-147.91531c-1.170745 12.567029 0 73.082845 0 73.082845h217l-.98657-91.424c-9.39863-5.423665-21.48419-3.694326-28.44332-.196552"
          fill="#17b5eb" transform="matrix(.18465877 0 0 .18465877 3.070472 -11.997864)"/>
    <path clip-path="url(#a)" d="m34 89v57h217v-57" fill-opacity=".17"
          transform="matrix(.18465877 0 0 .18465877 3.070472 -11.997864)"/>
    <path clip-path="url(#a)"
          d="m111.23736 140.88997c-13.539619-6.42517-20.971653-15.15916-25.106749-24.69435l-41.130611 1.80438 21 28z"
          fill="#d4edf1" transform="matrix(.18465877 0 0 .18465877 3.070472 -11.997864)"/>
    <path clip-path="url(#a)"
          d="m222.5 53.9375v.03125c-20.86119 26.889144-50.78312 50.37872-82.90625 62.71875-28.65478 11.00767-53.638381 11.06039-70.875 2.21875-1.85607-1.04832-3.675701-2.21152-5.5-3.3125-12.636653-8.832-19.754476-23.441442-19.15625-42.6875h-10.0625v73.09375h217v-96h-25z"
          fill-opacity=".085" transform="matrix(.18465877 0 0 .18465877 3.070472 -11.997864)"/>
    <path d="m11.495528 9.6129822c2.61572.1431678 5.407261.1688391 7.842227-.5943704" fill="none" stroke="#394d54"
          stroke-linecap="round" stroke-width=".62784"/>
    <path
      d="m21.937102 7.7531009c0 .5574812-.451957 1.0094391-1.009438 1.0094391-.55758 0-1.009637-.4519579-1.009637-1.0094391 0-.5574792.452057-1.0096366 1.009637-1.0096366.557481 0 1.009438.4521574 1.009438 1.0096366z"
      fill="#d4edf1"/>
    <g fill="#394d54">
      <path
        d="m21.189443 7.0788231c-.08812.050933-.147751.146368-.147751.2555493 0 .1629817.132126.2949111.295108.2949111.111654 0 .208672-.062008.258813-.153588.03541.085349.05508.1791023.05508.2774054 0 .3992471-.323689.7229354-.723034.7229354-.399246 0-.723133-.3236883-.723133-.7229354 0-.3994427.323887-.7232308.723133-.7232308.09237 0 .180486.017413.261779.048953z"/>
      <path
        d="m3.0704715 4.6514029h46.9637905c-1.022592-.259406-3.235406-.6097974-2.870478-1.9499471-1.859357 2.1515976-6.343535 1.509461-7.475209.4484966-1.260242 1.8278098-8.596698 1.1330601-9.108392-.2908553-1.579875 1.8541163-6.475462 1.8541163-8.055436 0-.51189 1.4239154-7.848248 2.1186651-9.108588.2908553-1.131675 1.0609644-5.6154561 1.703101-7.4750116-.4484966.3649289 1.3401497-1.8478857 1.6905411-2.8706759 1.9499471"/>
    </g>
  </g>
</svg>
