<svg xmlns="http://www.w3.org/2000/svg" width="100%" height="198" viewBox="0 0 85 100">
  <style>
    path { fill: #fff } /* set theme background color */

    @media (prefers-color-scheme: dark) {
      path { fill: #18181c }
    }
  </style>
  <path opacity=".3" d="M28.018 81.221c0 1.975-1.6 3.573-3.574 3.573h0c-1.974 0-3.574-1.601-3.574-3.573h0c0-1.975 1.601-3.574 3.574-3.574h0c1.974-.001 3.574 1.599 3.574 3.574h0z">
    <animateTransform attributeName="transform" attributeType="XML" type="translate" values="0 50;0 -50;" dur="2.8s" repeatCount="indefinite"/>
    <animate attributeName="opacity" values="1;0" dur="2.8s" repeatCount="indefinite"/>
  </path>
  <path opacity=".3" d="M39.018 51.221c0 1.975-1.6 3.573-3.574 3.573h0c-1.974 0-3.574-1.601-3.574-3.573h0c0-1.975 1.601-3.575 3.574-3.575h0c1.974 0 3.574 1.6 3.574 3.575h0z">
    <animateTransform attributeName="transform" attributeType="XML" type="translate" values="0 50;0 -50;" dur="4s" repeatCount="indefinite"/>
    <animate attributeName="opacity" values="1;0" dur="4s" repeatCount="indefinite"/>
  </path>
  <path opacity=".3" d="M65.018 81.221c0 1.975-1.6 3.573-3.574 3.573h0c-1.973 0-3.573-1.601-3.573-3.573h0c0-1.975 1.601-3.574 3.573-3.574h0c1.974-.001 3.574 1.599 3.574 3.574h0z">
    <animateTransform attributeName="transform" attributeType="XML" type="translate" values="2 50;2 -50;" dur="2.2s" repeatCount="indefinite"/>
    <animate attributeName="opacity" values="1;0" dur="2.2s" repeatCount="indefinite"/>
  </path>
  <path opacity=".3" d="M58.018 59.221c0 1.975-1.6 3.573-3.574 3.573h0c-1.973 0-3.573-1.601-3.573-3.573h0c0-1.975 1.601-3.574 3.573-3.574h0c1.974-.001 3.574 1.599 3.574 3.574h0z">
    <animateTransform attributeName="transform" attributeType="XML" type="translate" values="0 50;0 -50;" dur="2.5s" repeatCount="indefinite"/>
    <animate attributeName="opacity" values="1;0" dur="2.5s" repeatCount="indefinite"/>
  </path>
  <path opacity=".3" d="M23.165 61.221a1.72 1.72 0 0 1-1.721 1.719h0a1.72 1.72 0 0 1-1.72-1.719h0a1.72 1.72 0 0 1 1.72-1.721h0a1.72 1.72 0 0 1 1.721 1.721h0z">
    <animateTransform attributeName="transform" attributeType="XML" type="translate" values="0 50;0 -50;" dur="3s" repeatCount="indefinite"/>
    <animate attributeName="opacity" values="1;0" dur="3s" repeatCount="indefinite"/>
  </path>
  <path opacity=".3" d="M45.165 71.221a3.72 3.72 0 0 1-3.721 3.719h0a3.72 3.72 0 0 1-3.719-3.719h0a3.72 3.72 0 0 1 3.719-3.72h0a3.72 3.72 0 0 1 3.721 3.72h0z">
    <animateTransform attributeName="transform" attributeType="XML" type="translate" values="0 50;0 -50;" dur="4s" repeatCount="indefinite"/>
    <animate attributeName="opacity" values="1;0" dur="4s" repeatCount="indefinite"/>
  </path>
  <path opacity=".3" d="M43.877 86.221c0 1.344-1.09 2.432-2.434 2.432h0c-1.343 0-2.433-1.088-2.433-2.432h0c0-1.345 1.09-2.434 2.433-2.434h0c1.345 0 2.434 1.089 2.434 2.434h0z">
    <animateTransform attributeName="transform" attributeType="XML" type="translate" values="0 50;0 -50;" dur="3s" repeatCount="indefinite"/>
    <animate attributeName="opacity" values="1;0" dur="3s" repeatCount="indefinite"/>
  </path>
  <path opacity=".3" d="M63.999 42.22c0 1.411-1.146 2.554-2.556 2.554h0c-1.408 0-2.553-1.143-2.553-2.554h0c0-1.411 1.145-2.554 2.553-2.554h0c1.411 0 2.556 1.143 2.556 2.554h0z">
    <animateTransform attributeName="transform" attributeType="XML" type="translate" values="0 50;0 -50;" dur="3s" repeatCount="indefinite"/>
    <animate attributeName="opacity" values="1;0" dur="3s" repeatCount="indefinite"/>
  </path>
  <path opacity=".3" d="M23.109 46.601c0 .709-.575 1.283-1.285 1.283h0c-.708 0-1.283-.573-1.283-1.283h0c0-.709.575-1.284 1.283-1.284h0c.71 0 1.285.574 1.285 1.284h0z">
    <animateTransform attributeName="transform" attributeType="XML" type="translate" values="0 50;0 -50;" dur="2s" repeatCount="indefinite"/>
    <animate attributeName="opacity" values="1;0" dur="2s" repeatCount="indefinite"/>
  </path>
  <path opacity=".3" d="M53.075 49.444c0 .709-.574 1.283-1.284 1.283h0c-.708 0-1.283-.573-1.283-1.283h0c0-.709.575-1.283 1.283-1.283h0c.709 0 1.284.573 1.284 1.283h0z">
    <animateTransform attributeName="transform" attributeType="XML" type="translate" values="0 50;0 -50;" dur="2.5s" repeatCount="indefinite"/>
    <animate attributeName="opacity" values="1;0" dur="2.5s" repeatCount="indefinite"/>
  </path>
  <path opacity=".3" d="M53.497 74.723a1.28 1.28 0 0 1-1.284 1.283h0a1.28 1.28 0 0 1-1.283-1.283h0a1.28 1.28 0 0 1 1.283-1.281h0a1.28 1.28 0 0 1 1.284 1.281h0z">
    <animateTransform attributeName="transform" attributeType="XML" type="translate" values="0 50;0 -50;" dur="2.2s" repeatCount="indefinite"/>
    <animate attributeName="opacity" values="1;0" dur="2.2s" repeatCount="indefinite"/>
  </path>
  <path opacity=".3" d="M26.061 70.771c0 .709-.575 1.283-1.284 1.283h0c-.708 0-1.283-.574-1.283-1.283h0c0-.709.575-1.283 1.283-1.283h0c.709-.002 1.284.574 1.284 1.283h0z">
    <animateTransform attributeName="transform" attributeType="XML" type="translate" values="0 50;0 -50;" dur="2s" repeatCount="indefinite"/>
    <animate attributeName="opacity" values="1;0" dur="2s" repeatCount="indefinite"/>
  </path>
  <path opacity=".3" d="M65.877 68.221c0 1.344-1.09 2.432-2.434 2.432h0c-1.344 0-2.434-1.088-2.434-2.432h0c0-1.345 1.09-2.434 2.434-2.434h0c1.345 0 2.434 1.089 2.434 2.434h0z">
    <animateTransform attributeName="transform" attributeType="XML" type="translate" values="0 50;-10 -50;" dur="5s" repeatCount="indefinite"/>
    <animate attributeName="opacity" values="1;0" dur="5s" repeatCount="indefinite"/>
  </path>
</svg>
