<!-- Picture author: Marta Gocel <https://dribbble.com/martagocel> -->
<svg xmlns="http://www.w3.org/2000/svg" viewBox="0 0 1873 971">
  <style>.D{fill:#fff}.E{fill:#ffc04c}.F{fill:#c2c2c2}</style>
  <path d="M1841.15 405.32c-28-45-81-73-148-50-8-54-31-99-92-140s-155.36-32.38-213.18 11.81c-14.28 10.92-24.73 20.72-32.42 30.18 0 0-21.4-25.99-73.4-42.99s-145-6-202 26-113 60-111.24 258.5c0 0 10.26 347.47 305.25 298.99h0c45.17 142.51 303.29 80.47 286.07-92.99 53.18-8.96 95.02-42.69 87.53-95.26 22.94 19.35 61.17 25.13 94.4 22.76 42-3 91-41 110-92s16.99-90-11.01-135z" class="D"/>
  <path d="M1843.06 404.14c-15-24.1-35.91-41.88-60.47-51.41-26.54-10.3-56.78-10.42-87.62-.38-4.51-28.52-12.81-51.81-26.03-73.08-15.15-24.37-36.91-45.9-66.53-65.8-29.4-19.76-68.17-29.15-109.19-26.42-39.9 2.65-77.76 16.25-106.61 38.31-13.18 10.07-23.39 19.43-31.12 28.53-6.16-6.5-28.33-27.21-72.64-41.69-53.84-17.6-147.17-5.61-203.8 26.18l-2.85 1.6c-27.57 15.45-56.08 31.43-76.7 67.88-23.2 41-33.63 101.69-32.84 191.05.01.43 1.43 43.35 15.57 96.18 13.08 48.84 40.03 116.42 94.16 161.03 39.25 32.34 87.41 48.6 143.7 48.59 16.79 0 34.32-1.46 52.52-4.36 9.55 28.57 28.23 50.6 54.55 64.09 18.8 9.64 41.08 14.6 64.64 14.6 9.6 0 19.43-.83 29.31-2.49 76.87-12.99 149.78-75.42 141.55-169.84 27-4.9 50.35-16.14 65.91-31.77 16.38-16.45 23.92-37.21 22.01-60.34 7.52 5.44 16.57 9.92 27.01 13.27 14.81 4.75 32.34 7.24 50.48 7.24a200.09 200.09 0 0 0 14.24-.51c21.22-1.52 44.26-11.64 64.89-28.5 21.2-17.33 37.91-40.4 47.06-64.96 19.69-52.89 16.45-92.57-11.2-137zm6.99 135.4c-17.78 47.71-65.24 87.48-108.05 90.54-38.72 2.77-89.94-5.99-106.83-39.76-16.22-32.43-2.23-60.54-2.01-60.96l-2-1.03-2-1.03c-.63 1.23-15.33 30.42 1.99 65.04 3.42 6.83 8.3 12.98 14.49 18.34 7.49 55.89-41.34 84.45-85.78 91.94l-2.07.35.21 2.09c9.22 92.84-62.26 154.31-137.63 167.04-60.45 10.22-129.21-11.73-146.52-83.79-12.08-50.28-7.72-90.7 12.96-120.12 27.64-39.34 75.62-45.06 76.1-45.12l-.49-4.47c-.5.05-50.42 5.95-79.26 46.96-21.48 30.53-26.08 72.19-13.68 123.81a137.34 137.34 0 0 0 1.78 6.64c-77.62 12.22-142.2-2.35-191.97-43.35-53.19-43.82-79.75-110.44-92.67-158.62-14.03-52.34-15.44-94.84-15.45-95.21-1.71-193.86 51.21-223.52 107.25-254.92l2.85-1.6c55.69-31.27 147.38-43.09 200.2-25.82 44.02 14.39 66 35.49 71.16 40.94-19.68 25.06-20.61 47.74-21.99 81.73l-.71 16.07 4.49.23.72-16.12c1.37-33.78 2.27-56.09 22.19-80.59 7.68-9.45 18.16-19.2 32.04-29.81 59.83-45.73 152.32-50.88 210.56-11.73 54.89 36.9 82.12 78.31 91.03 138.46l.4 2.68 2.56-.88c59.25-20.34 113.59-2 145.36 49.06 26.78 43.08 29.91 81.62 10.77 133.01z"/>
  <path d="M437.65 788.82s38 1 61 37 7 84-21 101-72 30-131 10-93-78-100-122c-29 15-79.04 5-107.02-26s-42.98-72-22.98-123 62-68 105-67 73 34 84 51c17-16 42-27 58-29-6-29 6-70 31-104s52-49 84-62l80 192-77 160" class="D"/>
  <path d="M404.5 949.2c-17.41 0-36.94-2.92-58.56-10.25-58.13-19.7-92.74-75.78-100.99-120.81-14.33 6.41-33.32 7.56-52.68 3.12-21.44-4.92-40.73-15.9-54.3-30.94-15.41-17.08-25.51-35.58-30-55-5.17-22.32-2.95-45.98 6.6-70.33 9.56-24.37 24.65-42.59 44.85-54.13 17.57-10.04 38.52-14.87 62.29-14.3 37.88.88 68.69 26.89 84.37 49.82 16.83-14.98 39.53-24.86 54.94-27.45-5.1-29.71 7.23-69.99 31.83-103.45 24.65-33.53 50.79-48.87 84.97-62.75l2.08-.84.85 2.08 79.99 191.98.39.93-76.59 159.15c5.66 4.87 11.15 10.96 16.02 18.58 10.74 16.82 14.01 37.47 9.21 58.15-4.61 19.83-16.17 37.02-30.94 45.99-17.29 10.49-42.18 20.45-74.33 20.45zM248.39 811.39l.49 3.08c7.03 44.21 40.86 100.68 98.5 120.22 59.92 20.31 103.29 5.89 129.11-9.79 13.75-8.35 24.55-24.48 28.89-43.16 4.53-19.49 1.47-38.92-8.62-54.71-22.05-34.51-58.8-35.95-59.17-35.96l.12-4.5c1.2.03 22.69.83 43.23 16.55l75.25-156.36-78.76-189c-32.44 13.37-57.43 28.41-80.96 60.4-24.54 33.37-36.55 73.49-30.61 102.21l.49 2.39-2.42.3c-14.85 1.86-39.78 12.44-56.74 28.41l-1.96 1.85-1.47-2.27c-3.23-5-32.99-48.83-82.16-49.97-34.88-.78-81.02 9.91-102.85 65.57-17.36 44.26-9.77 84.86 22.55 120.67 26.05 28.86 74.79 40.78 104.32 25.51l2.77-1.44z"/>
  <path d="M1555.67 371.82l145-172-78 7 106-135-215 170 61 3-96 81z" class="E"/>
  <path d="M1474.81 326.14l94.04-79.35-61.28-3.01L1742.15 58.3l-114.5 145.82 78.26-7.02-149.76 177.64-81.34-48.6zm142.87-116.61l97.5-124.18-195.42 154.52 60.72 2.99-97.96 82.65 72.65 43.4 140.24-166.36-77.73 6.98z"/>
  <path d="M1599.58 382.03s8.36-18.98 0-46.54-31.67-57.07-73.49-55.26c-24.26 1.05-41.01 12.89-52.34 20.58l-19.84 13.14 109.76 77.87 35.91-9.79z" class="D"/>
  <path d="M1601.91 383.05c.36-.81 8.65-20.16.11-48.3-8.74-28.8-33.3-58.91-76.04-57.06-24.98 1.08-43.08 12.11-53.87 21.17l3.27 3.89c10.18-8.55 27.27-18.95 50.82-19.98 39.83-1.72 62.77 26.48 70.95 53.45 7.96 26.23.18 44.59.11 44.78l4.65 2.05z"/>
  <path d="M189.65 758.82l-145-172 78 7-106-135 215 170-61 3 96 81z" class="E"/>
  <path d="M189.17 761.74L39.41 584.1l78.26 7.02L3.17 445.29l234.58 185.48-61.28 3.01 94.04 79.35-81.34 48.61zM49.9 589.55l140.24 166.36 72.65-43.4-97.96-82.65 60.72-2.99L30.14 472.36l97.5 124.18-77.74-6.99z"/>
  <path d="M169.65 779.82s-9-16-4-41 23-53 60-55c21.47-1.16 37.24 7.83 47.89 13.63l18.61 9.87-122.5 72.5z" class="D"/>
  <path d="M167.69 780.93c-.38-.68-9.35-17.02-4.25-42.54 5.22-26.12 24.28-54.76 62.08-56.81 22.1-1.19 39 6.97 49.28 14.02l-2.55 3.71c-9.71-6.66-25.66-14.35-46.49-13.24-35.24 1.9-53.02 28.73-57.92 53.19-4.76 23.79 3.67 39.31 3.76 39.46l-3.91 2.21z"/>
  <path d="M1245.07 946.82a223.19 223.19 0 0 0 1.58-26.51V726.34c0-123.48-101.03-224.51-224.51-224.51H901.16c-123.48 0-224.51 101.03-224.51 224.51v193.98a225.32 225.32 0 0 0 1.58 26.51h566.84z" fill="#00b38f"/>
  <path d="M1247.29 949.32H676.02l-.26-2.21c-1.06-8.93-1.6-17.95-1.6-26.81V726.34c0-60.39 23.68-117.33 66.68-160.33s99.94-66.68 160.33-66.68h120.98c60.39 0 117.33 23.68 160.33 66.68s66.68 99.94 66.68 160.33v193.98c0 8.86-.54 17.88-1.6 26.81l-.27 2.19zm-566.82-5h562.37c.87-8.01 1.32-16.08 1.32-24.01V726.34c0-122.42-99.59-222.01-222.01-222.01H901.16c-122.42 0-222.01 99.59-222.01 222.01v193.98c0 7.93.45 15.99 1.32 24z"/>
  <ellipse transform="matrix(.9778 -.2094 .2094 .9778 -36.6282 168.2693)" cx="776.54" cy="257.16" rx="40.92" ry="49.49" class="E"/>
  <path d="M779.76 308.31c-20.53 0-39.89-17.43-45.19-42.16-5.94-27.76 8.05-54.38 31.19-59.33 11.28-2.42 23 .6 32.99 8.5 9.88 7.81 16.9 19.48 19.76 32.86 5.94 27.76-8.05 54.38-31.19 59.33-2.52.53-5.05.8-7.56.8zM773.39 210c-2.27 0-4.54.24-6.79.72-20.99 4.49-33.6 28.98-28.12 54.59s27.01 42.78 48 38.29 33.6-28.98 28.12-54.59c-2.67-12.47-9.18-23.33-18.33-30.56-7.02-5.56-14.95-8.45-22.88-8.45zm-15.07 45.94l-3.33-2.22c.17-.25 17.07-25.1 42.15-18.83l-.97 3.88c-22.32-5.59-37.7 16.94-37.85 17.17z"/>
  <path d="M845.65 532.82c0 13 13 23 23 29s34 13 54 15 49 4 80-3 45-16 56-29-6-33-21-40-44-15-78-15-68 3-85 11-29 20-29 32z" class="D"/>
  <path d="M956.22 580.69c-12.39 0-23.82-.88-33.77-1.87-19.43-1.94-44.03-8.8-54.83-15.28-15.91-9.54-23.97-19.88-23.97-30.71 0-12.29 11.27-24.93 30.15-33.81 20.69-9.74 62.67-11.19 85.85-11.19 34.14 0 63.11 7.85 78.85 15.19 10.29 4.8 22.61 16.24 25.19 27.99 1.25 5.7.04 10.93-3.5 15.12-10.53 12.44-24.26 22.25-57.09 29.66-16.35 3.68-32.27 4.9-46.88 4.9zm3.43-88.87c-39.45 0-69.34 3.84-84.15 10.81-17.18 8.08-27.85 19.65-27.85 30.19 0 9.33 7.41 18.51 22.03 27.29 9.09 5.45 32.62 12.67 53.17 14.72 21.38 2.14 49.71 3.73 79.36-2.96 31.74-7.17 44.91-16.51 54.91-28.34 2.75-3.25 3.64-7.17 2.65-11.67-2.22-10.11-13.42-20.77-22.97-25.22-14.63-6.84-43.63-14.82-77.15-14.82z"/>
  <path d="M878.65 393.82l-13 129s6 11 27 22 36 16 71 16 61-16 77-29c-2-32-12-130-12-130l-150-8z" class="E"/>
  <path d="M869.65 480.82s24 5 69-16.04c55-25.96 56-39.96 56-39.96s-20 3-37 2-45-7-57-13-23-13-23-13l-8 80z"/>
  <path d="M963.65 562.82c-35.03 0-50.5-5.01-71.93-16.23-21.29-11.15-27.57-22.34-27.83-22.81l-.3-.54 13.25-131.51 153.61 8.19.17 1.7 12.01 130.08.06 1.03-.8.65c-24.02 19.54-50.36 29.44-78.24 29.44zm-95.94-40.47c1.44 2.19 8.24 11.46 25.87 20.7 21.23 11.12 35.66 15.77 70.07 15.77 26.63 0 51.84-9.39 74.94-27.91-1.96-30.21-10.43-114.15-11.75-127.19l-146.38-7.81-12.75 126.44z"/>
  <path d="M792.65 175.82c-2.33 41.98-5 73-2 95s13 55 34 83 55 54 89 64 77 15 122-4 70-43 94-81 21.57-128 19.79-157-30.21-142.79-179.5-142.79-175.29 106.79-177.29 142.79z" class="E"/>
  <path d="M971.76 428.77c-18.72 0-38.21-3.01-58.67-9.03-32.84-9.66-67.34-34.46-90.04-64.72-26.01-34.68-32.89-73.01-34.38-83.93-2.54-18.65-1.04-43.93.86-75.94l1.13-19.44 2 .11-2-.11c.62-11.2 4.9-50.5 33.86-86.05 31.69-38.9 80.62-58.63 145.43-58.63 34.76 0 65.59 6.2 91.63 18.42 21.72 10.2 40.22 24.61 54.99 42.84 25.41 31.35 33.88 67.18 34.88 83.4 1.18 19.23 5.79 117.22-20.09 158.19-25.84 40.92-52.46 63.85-94.91 81.77-20.72 8.76-42.16 13.12-64.69 13.12zm-1.82-393.73c-162.76 0-174.49 126.48-175.29 140.9l-1.13 19.45c-1.89 31.79-3.38 56.9-.89 75.17 1.46 10.68 8.18 48.16 33.62 82.07 21.87 29.16 56.4 54 87.96 63.28 44.17 12.99 83.64 11.71 120.66-3.92 41.63-17.58 67.72-40.07 93.09-80.23 25.75-40.78 20.2-144.16 19.48-155.81-.97-15.75-9.22-50.56-34-81.13-32.14-39.67-80.42-59.78-143.5-59.78zm-79.29 282.78l67 36s13-10 13-24-7-21-17-28-25-7-35-5-20 9-28 21z"/>
  <path d="M907.65 324.82s3-4 10-5 7 3 11 4 5 0 6 3 1 6 1 6 0 2 2 2 2-2 2-3 0-3.62-1-5.81 0-2.19 3-3.19 3.53-2.32 7.27-3.16c3.73-.84 5.73-.84 7.73-.84s9 0 11 3 3 5 3 7 0 6-2 10-4 8-7 11l-4 4-51-27s0-1 1-2z" fill="#ff757c"/>
  <path d="M957.85 356.2l-70.08-37.65 1.22-1.83c7.94-11.9 18.33-19.66 29.27-21.85 10.88-2.18 26.19-1.92 36.54 5.32 11.02 7.72 17.85 15.36 17.85 29.64 0 14.81-13.22 25.15-13.78 25.59l-1.02.78zm-64.28-39.08l63.83 34.3c2.89-2.57 11.25-10.94 11.25-21.59 0-12.59-5.92-19.2-16.15-26.36-9.33-6.53-23.85-6.6-33.46-4.68-9.33 1.86-18.32 8.35-25.47 18.33z"/>
  <g fill="#ff757c"><circle cx="1036.65" cy="278.82" r="16"/>
    <circle cx="894.65" cy="275.82" r="15"/>
  </g>
  <path d="M977.74 278.72c-3.58 0-7-.82-7.57-.96-1.07-.27-1.72-1.35-1.46-2.42a2 2 0 0 1 2.42-1.46c2.82.7 8.2 1.37 10.63.17 4.03-1.99 7.66-4.45 6.91-8.9-.83-4.97-6.96-8.56-7.02-8.59a2 2 0 1 1 1.99-3.47c.32.18 7.84 4.55 8.98 11.41 1.33 7.99-5.97 11.6-9.09 13.14-1.64.81-3.74 1.08-5.79 1.08z"/>
  <use href="#A" class="D"/>
  <path d="M937.15 249.57c-16.68 0-30.25-13.35-30.25-29.75 0-7.51 2.86-14.69 8.05-20.2a1.75 1.75 0 0 1 1.27-.55h41.86a1.75 1.75 0 0 1 1.27.55c5.19 5.51 8.05 12.69 8.05 20.2 0 16.41-13.57 29.75-30.25 29.75zm-20.15-47a25.85 25.85 0 0 0-6.59 17.25c0 14.47 12 26.25 26.75 26.25s26.75-11.78 26.75-26.25c0-6.37-2.34-12.47-6.59-17.25H917z"/>
  <circle cx="945.65" cy="220.82" r="5"/>
  <use href="#A" x="87" class="D"/>
  <path d="M1024.15 249.57c-16.68 0-30.25-13.35-30.25-29.75 0-7.51 2.86-14.69 8.05-20.2a1.75 1.75 0 0 1 1.27-.55h41.86a1.75 1.75 0 0 1 1.27.55c5.19 5.51 8.05 12.69 8.05 20.2 0 16.41-13.57 29.75-30.25 29.75zm-20.15-47a25.85 25.85 0 0 0-6.59 17.25c0 14.47 12 26.25 26.75 26.25s26.75-11.78 26.75-26.25c0-6.37-2.34-12.47-6.59-17.25H1004z"/>
  <circle cx="1030.65" cy="220.82" r="5"/>
  <path d="M1071.65 202.57h-183c-.97 0-1.75-.78-1.75-1.75s.78-1.75 1.75-1.75h183c.97 0 1.75.78 1.75 1.75s-.78 1.75-1.75 1.75zm-283 30.25c13-35 22-40 63-72s53-32 100-73c24 35 45 36 89 58s113 43 113 43 0-22-2-55-3-58-25-88-65-43-102-43-58 10-65 14c-6-5-21-13-47-13s-49 6-78 26-43 42-49 60c-4 13-4 41-4 68s6 82 6 82l1-7z"/>
  <path d="M1100.65 137.08c-.23 0-.47-.04-.7-.11-.46-.15-46.53-15.25-76.36-31.15l-10.84-5.72C990.28 88.31 979 82.4 972.6 67.91c-7.39-16.72-.17-28.76.14-29.26.65-1.06 2.04-1.39 3.1-.73 1.06.65 1.38 2.03.74 3.09-.27.44-6.25 10.63.14 25.09 5.77 13.05 15.91 18.37 38.13 30.02l10.87 5.73c29.49 15.73 75.18 30.7 75.64 30.85 1.18.39 1.83 1.66 1.44 2.84-.32.93-1.2 1.54-2.15 1.54z" class="D"/>
  <path d="M1101.65 810.82s-2 46 13 81 28 55 72 68 88 1 118-18 53-56 50-88l-17-180c-7-56-20-141-20-141l-215.83 15.22-.17 262.78z" fill="#00b38f"/>
  <path d="M1224.64 967.2c-13.14 0-26.15-1.8-38.56-5.46-46.49-13.74-59.2-36.29-73.27-69.13-14.8-34.53-13.23-80.12-13.16-81.83l.17-262.74 1.86-1.99 215.83-15.22 2.12 1.69 20.01 141.05c5.17 41.32 10.41 103.21 13.89 144.16l3.12 35.91c1.46 15.56-3.12 33.34-12.89 50.07-9.39 16.09-22.9 30.22-38.03 39.81-24.57 15.55-53.13 23.68-81.09 23.68zm-120.81-417.29l-.17 261c-.02.46-1.8 45.96 12.84 80.12 14.04 32.75 25.8 53.6 70.73 66.87 37.7 11.14 81.2 4.5 116.36-17.77 30.76-19.48 51.86-56.5 49.08-86.12l-3.12-35.94-13.87-144c-6.35-50.82-17.79-126.46-19.71-139.12l-212.14 14.96z"/>
  <ellipse transform="matrix(.9982 -.06 .06 .9982 -30.2982 73.6038)" cx="1210.9" cy="541.49" rx="109.27" ry="27.56"/>
  <path d="M1120.65 184.82l-99-1s0-63 81-63c45 0 62 19 75 37 8 23 115 395 115 395s-24 8-49 11-41 3-63 3-43-3-52-5c0-12-8-377-8-377z" class="E"/>
  <path d="M1294.58 552.27l-115.03-396.11-.1-.28-.17-.24c-13.22-18.3-31.13-37.83-76.62-37.83-42.74 0-63.05 17.63-72.56 32.42-10.32 16.06-10.44 31.91-10.44 32.58v1.98l99.04 1 7.96 376.02v1.6l1.57.35c9.05 2.01 29.97 4.05 52.43 4.05 22.13 0 38.12 0 63.24-3.01 24.88-2.98 49.08-10 49.32-10.07l1.91-.56-.55-1.9zm-51.16 8.57c-24.88 2.99-40.77 2.99-62.76 2.99-20.72 0-40.61-1.82-50.02-3.63l-7.12-336.57 30.13-41.8-129.89-.98c.38-4.64 2.1-16.7 9.8-28.6 13.07-20.19 36.31-30.42 69.09-30.42 43.42 0 60.02 17.71 73.21 35.93 8.27 24.25 106 364.71 114.32 393.69-6.16 1.68-26.24 6.93-46.76 9.39z"/>
  <path d="M791.65 847.82c19-1 34-5 46-17s20-28 18-52-9-50-7-72 21-46 53-55 60-4 77 6 23 28 23 38-4 18-13 18-19-1-28-3-22-5-32-4-18 9-16 20 6 26 11 39 17 42 17 61-2 44-12 68-32 52.38-32 52.38H784.19l7.46-99.38z" class="F"/>
  <path d="M897.63 949.21h-115.6l7.76-103.29 1.76-.09c20.92-1.1 34.28-6.01 44.69-16.42 13.62-13.62 19.15-29.64 17.42-50.42-.71-8.54-2.09-17.52-3.42-26.19-2.4-15.64-4.88-31.8-3.58-46.15 1.92-21.16 19.51-46.92 54.45-56.75 28.81-8.1 58.18-5.79 78.56 6.2 18.97 11.16 23.99 30.86 23.99 39.72 0 12.34-5.75 20-15 20-9.49 0-19.59-1.08-28.43-3.05l-.87-.19c-8.92-1.99-21.13-4.7-30.5-3.77-4.83.48-9.11 2.76-11.74 6.26-2.4 3.19-3.27 7.13-2.49 11.4 2.19 12.05 6.37 26.86 10.9 38.64l1.43 3.7c5.49 14.08 15.7 40.28 15.7 58.02 0 26.65-3.98 49.14-12.15 68.77-9.99 23.97-32.04 52.55-32.27 52.84l-.61.77zm-111.29-4h109.32c3.56-4.7 22.27-29.86 31.14-51.15 7.97-19.13 11.85-41.12 11.85-67.23 0-16.99-10.03-42.74-15.43-56.57l-1.44-3.71c-4.61-12-8.87-27.08-11.1-39.36-.98-5.39.14-10.41 3.23-14.52 3.3-4.38 8.6-7.24 14.54-7.83 10.01-1 22.58 1.8 31.76 3.84l.87.19c8.57 1.9 18.36 2.95 27.57 2.95 9.93 0 11-11.19 11-16 0-9.38-5.86-26.78-22.01-36.28-19.46-11.44-47.66-13.61-75.44-5.8-32.93 9.26-49.81 34.1-51.55 53.26-1.26 13.86 1.18 29.79 3.55 45.19 1.34 8.75 2.73 17.79 3.45 26.47 1.81 21.74-4.27 39.27-18.58 53.58-10.87 10.87-24.56 16.14-45.55 17.48l-7.18 95.49z"/>
  <path d="M640.15 630.82h0c-89.38 0-162.5 73.12-162.5 162.5v153.5h325v-153.5c0-89.37-73.12-162.5-162.5-162.5z" class="F"/>
  <path d="M727.65 946.82v-76.59c0-35.98-29.44-65.41-65.41-65.41h-47.17c-35.98 0-65.41 29.44-65.41 65.41v76.59h177.99z" class="D"/>
  <path d="M595.65 764.82c57 1 86-19 114-40l-180.78-49.64c-16.75 15.79-30.17 35.07-39.06 56.65 24.11 20.92 56.85 32.13 105.84 32.99z"/>
  <path d="M805 949H476V793.5c0-43.76 17.16-85.02 48.32-116.18S596.74 629 640.5 629s85.02 17.16 116.18 48.32S805 749.74 805 793.5V949zm-325-4h321V793.5C801 705 729 633 640.5 633S480 705 480 793.5V945z"/>
  <path d="M457.65 434.82l38 89 282 9 43-98-118 12h-136z" class="F"/>
  <path d="M779.1 535.12l-1.52-.05-283.43-9.05-40.08-93.86 112.71 12.41h135.76l121.72-12.38-45.16 102.93zm-281.94-13.5l279.04 8.91 40.84-93.07-114.28 11.62-136.36-.01-105.17-11.58 35.93 84.13z"/>
  <circle cx="638.65" cy="586.82" r="161" class="F"/>
  <path d="M638.65 750.07c-90.02 0-163.25-73.23-163.25-163.25s73.23-163.25 163.25-163.25S801.9 496.81 801.9 586.82s-73.23 163.25-163.25 163.25zm0-322c-87.54 0-158.75 71.21-158.75 158.75s71.21 158.75 158.75 158.75S797.4 674.36 797.4 586.82s-71.21-158.75-158.75-158.75zm22.4 230.95c-.06-.08-5.94-7.88-11.68-12.66l-.82-.68c-5.28-4.42-8.18-6.85-18.9-6.85-10.63 0-13.61 2.44-13.64 2.47l-2.77-2.88c.6-.6 4.2-3.59 16.41-3.59 12.17 0 15.87 3.1 21.47 7.78l.81.68c6.11 5.09 12.07 13 12.32 13.34l-3.2 2.39zm-10.49-62.84c-.25-.52-.78-.85-1.35-.85h-29.55c-.58 0-1.11.34-1.36.86-.25.53-.17 1.15.21 1.6l15 18c.29.34.71.54 1.15.54.46 0 .88-.21 1.17-.56l14.55-18c.36-.45.43-1.07.18-1.59z"/>
  <path d="M427.65 625.82a2 2 0 0 1-1.98-1.72 2.01 2.01 0 0 1 1.71-2.26l144-20c1.1-.15 2.1.61 2.26 1.71a2.01 2.01 0 0 1-1.71 2.26l-144 20a2.62 2.62 0 0 1-.28.01zm13 40.01a2.01 2.01 0 0 1-1.88-1.31c-.38-1.04.15-2.19 1.18-2.57l135.23-50a2.01 2.01 0 0 1 2.57 1.18c.38 1.04-.15 2.19-1.18 2.57l-135.23 50c-.22.08-.46.13-.69.13zm369 14.99c-.34 0-.69-.09-1-.27l-117-68c-.96-.56-1.28-1.78-.72-2.73.56-.96 1.78-1.28 2.73-.72l117 68c.96.56 1.28 1.78.72 2.73-.37.64-1.04.99-1.73.99zm12-41.99c-.2 0-.4-.03-.59-.09l-129-40.13c-1.05-.33-1.64-1.45-1.32-2.5.33-1.06 1.45-1.64 2.5-1.32l129 40.13c1.05.33 1.64 1.45 1.32 2.5a1.99 1.99 0 0 1-1.91 1.41zm-105-108.01h-167c-1.1 0-2-.9-2-2s.9-2 2-2h167c1.1 0 2 .9 2 2a2 2 0 0 1-2 2z"/>
  <use href="#B" class="D"/>
  <use href="#C"/>
  <ellipse cx="575.65" cy="552.82" rx="3" ry="12"/>
  <use href="#B" x="85" class="D"/>
  <use href="#C" x="85"/>
  <ellipse cx="660.65" cy="552.82" rx="3" ry="12"/>
  <path d="M1339.65 626.82c-17.06 6-38.62 15.71-55 39-21.48 30.53-25.4 71.38-13 123 8.15 33.94 26.41 58.83 56 74 10.37 5.32 20.89 8.58 33 11 .53-1.48-20.73-245.51-21-247z" class="D"/>
  <path d="M1362.74 871.61c-40.98-8.08-77.03-33.91-88.9-83.31-12.08-50.28-7.72-90.7 12.96-120.12 15.64-22.26 37.78-33.75 54.15-39.55a25.76 25.76 0 0 1-1.18-4.34c-17.06 6-40.24 17.96-56.63 41.25-21.48 30.53-26.08 72.19-13.68 123.81 8.15 33.94 28.11 59.89 57.7 75.07 10.37 5.32 21.8 9.19 33.91 11.61.53-1.49 1.05-2.97 1.67-4.42z"/>
  <path d="M437.65 788.82c17 0 32 8 45 18 22 18 33 46 26 74v4c-6 22-22 38-42.41 47.95" class="D"/>
  <path d="M467.23 934.8l-1.97-4.04c19.69-9.6 28.53-15.57 36.81-36.27 1.92-4.81 4.17-12.52 4.34-13.74v-.2l.07-.27c6.54-26.15-3.14-53.63-25.24-71.71-15.28-11.76-29.56-17.49-43.58-17.49v-4.5c15.05 0 30.22 6.04 46.37 18.47 23.49 19.21 33.74 48.38 26.84 76.2-.33 2.42-2.94 10.71-4.63 14.92-8.82 22.05-18.66 28.71-39.01 38.63zm39.17-53.99h0z"/>
  <defs>
    <path d="M916.23 200.82c-4.7 4.99-7.57 11.67-7.57 19 0 15.46 12.76 28 28.5 28s28.5-12.54 28.5-28c0-7.33-2.87-14.01-7.57-19h-41.86z" id="A"/>
    <path d="M611.6 528.82h-40.89c-6.17 5.67-10.05 13.88-10.05 23 0 17.12 13.66 31 30.5 31s30.5-13.88 30.5-31c-.01-9.12-3.89-17.32-10.06-23z" id="B"/>
    <path d="M591.15 584.82c-17.92 0-32.5-14.8-32.5-33 0-9.3 3.9-18.22 10.7-24.47.37-.34.85-.53 1.35-.53h40.89c.5 0 .98.19 1.35.53 6.8 6.25 10.7 15.17 10.7 24.47.01 18.2-14.57 33-32.49 33zm-19.65-54c-5.63 5.46-8.85 13.07-8.85 21 0 15.99 12.79 29 28.5 29s28.5-13.01 28.5-29c0-7.93-3.21-15.54-8.85-21h-39.3z" id="C"/>
  </defs>
</svg>
