<!-- Picture author: Marta Gocel <https://dribbble.com/martagocel> -->
<svg xmlns="http://www.w3.org/2000/svg" viewBox="0 0 334 217">
  <path d="M292.25 58.4c-10.76 0-19.98 6.87-23.77 16.62-2.26-1.65-4.71-3.04-7.31-4.13.08-.88.13-1.76.13-2.66 0-14.66-11.47-26.55-25.63-26.55-14.15 0-25.63 11.89-25.63 26.55 0 6.77 2.45 12.94 6.47 17.63-3.29 5.53-5.18 12-5.18 18.93 0 20.24 16.16 36.65 36.1 36.65 18.27 0 33.37-13.78 35.77-31.66a24.86 24.86 0 0 0 9.06 1.71c14.15 0 25.63-11.89 25.63-26.55S306.41 58.4 292.25 58.4z" fill="#fff"/>
  <path d="M247.43 141.86c-20.13 0-36.51-16.63-36.51-37.07 0-6.66 1.76-13.19 5.09-18.89-4.11-4.9-6.38-11.17-6.38-17.67 0-14.87 11.68-26.96 26.04-26.96s26.04 12.09 26.04 26.96c0 .8-.03 1.6-.1 2.4 2.35 1.01 4.59 2.26 6.69 3.75 1.94-4.71 5.12-8.73 9.22-11.65 4.35-3.1 9.44-4.73 14.74-4.73 14.36 0 26.04 12.09 26.04 26.96s-11.68 26.96-26.04 26.96c-2.99 0-5.93-.52-8.73-1.55-1.28 8.6-5.52 16.49-11.99 22.27-6.67 5.94-15.23 9.22-24.11 9.22zM235.67 42.1c-13.9 0-25.22 11.72-25.22 26.13 0 6.41 2.26 12.57 6.37 17.36l.19.23-.15.26c-3.35 5.63-5.12 12.11-5.12 18.72 0 19.98 16.01 36.24 35.69 36.24 17.76 0 32.96-13.45 35.36-31.3l.07-.52.49.19a24.26 24.26 0 0 0 8.91 1.68c13.9 0 25.22-11.72 25.22-26.13s-11.31-26.13-25.22-26.13c-10.34 0-19.52 6.42-23.39 16.35l-.2.5-.43-.32c-2.24-1.64-4.68-3.01-7.23-4.08l-.28-.12.03-.3c.08-.87.13-1.75.13-2.62-.01-14.42-11.32-26.14-25.22-26.14z"/>
  <path d="M105.87 94.23c-18.06 0-32.7 14.64-32.7 32.7 0 1.15.06 2.28.18 3.4a36.16 36.16 0 0 0-13.04 6.84c-4.09-6.49-11.2-10.79-19.29-10.79-12.68 0-22.97 10.57-22.97 23.61s10.28 23.61 22.97 23.61a22.32 22.32 0 0 0 6.82-1.06c3.41 16.44 17.98 28.8 35.44 28.8 19.99 0 36.19-16.2 36.19-36.19 0-2.77-.31-5.47-.9-8.07 11.76-4.96 20.01-16.59 20.01-30.15-.01-18.06-14.65-32.7-32.71-32.7z" fill="#fff"/>
  <path d="M83.27 201.75a36.68 36.68 0 0 1-23.25-8.33c-6.32-5.2-10.75-12.42-12.5-20.36a22.68 22.68 0 0 1-6.51.94c-12.89 0-23.38-10.78-23.38-24.02s10.49-24.02 23.38-24.02c7.81 0 15.02 3.95 19.39 10.59a36.37 36.37 0 0 1 12.49-6.53 32.15 32.15 0 0 1-.14-3.1c0-18.26 14.86-33.12 33.12-33.12s33.12 14.86 33.12 33.12a33.06 33.06 0 0 1-19.95 30.39c.56 2.56.84 5.19.84 7.82 0 20.2-16.42 36.62-36.61 36.62zM48.15 172l.09.45c3.42 16.5 18.16 28.47 35.03 28.47 19.73 0 35.78-16.05 35.78-35.78a36.06 36.06 0 0 0-.89-7.97l-.08-.34.32-.13a32.24 32.24 0 0 0 19.76-29.77c0-17.8-14.48-32.29-32.29-32.29s-32.29 14.48-32.29 32.29c0 1.12.06 2.25.17 3.36l.04.35-.33.1c-4.73 1.35-9.07 3.62-12.89 6.76l-.36.3-.25-.4c-4.18-6.64-11.26-10.6-18.94-10.6-12.44 0-22.55 10.41-22.55 23.19s10.12 23.19 22.55 23.19a21.95 21.95 0 0 0 6.69-1.04l.44-.14zm51.01 16.97c-10.64-1.28-18.92-10.36-18.92-21.34 0-8.03 4.42-15.04 10.96-18.73.69 2.48 2.97 4.31 5.66 4.31h2.3v-11.76h-2.3c-3.23 0-5.88 2.65-5.88 5.88h0c0 .07 0 .14.01.22-7.16 3.84-12.04 11.41-12.04 20.08 0 11.69 8.85 21.35 20.21 22.64v-1.3z"/>
  <path d="M89.07 63.89c-5.89 4.12-9.75 10.96-9.75 18.68 0 11.57 8.66 21.15 19.84 22.59v-1.3C88.69 102.42 80.6 93.42 80.6 82.57c0-7.47 3.84-14.07 9.64-17.92 2.67 1.6 5.69 2.66 8.92 3.05v-1.3c-2.75-.35-5.34-1.23-7.67-2.53a21.4 21.4 0 0 1 7.67-2.61v-1.3c-3.23.42-6.26 1.52-8.92 3.15-5.9-3.84-9.82-10.49-9.82-18.04 0-8.05 4.45-15.08 11.02-18.77.89 2.11 2.99 3.61 5.42 3.61h2.3V18.17h-2.3c-3.23 0-5.88 2.65-5.88 5.88h0a5.47 5.47 0 0 0 .09 1c-7.1 3.86-11.94 11.39-11.94 20.03.01 7.8 3.95 14.7 9.94 18.81z"/>
  <path d="M229.88 187.19s4.59-4.59 7.35-8.63 3.4-9.37 3.4-9.37l-10.75-5.3v23.3z" fill="#c2c2c2"/>
  <path d="M229.51 188.08V163.3l11.51 5.67-.03.26c-.03.22-.68 5.46-3.46 9.53-2.74 4.02-7.35 8.64-7.39 8.69l-.63.63zm.74-23.6v21.81c1.35-1.4 4.57-4.85 6.68-7.94 2.33-3.42 3.13-7.85 3.3-8.95l-9.98-4.92z"/>
  <path d="M229.88 174.33s7.3-.4 10.63-5.16l-10.63-4.97v10.13z"/>
  <path d="M280.95 131.52l-14.83 15.25-5.19-20.57zm-39.86-13.22l-11.76 8.08.18-14.33z" fill="#c2c2c2"/>
  <path d="M260.36 125.62l5.54 21.98 15.84-16.29-21.38-5.69zm1.14 1.16l18.66 4.97-13.83 14.21-4.83-19.18zm-32.6.39l12.97-8.92-12.77-6.89-.2 15.81zm1.02-14.43l10.38 5.6-10.54 7.25.16-12.85z"/>
  <circle cx="244.94" cy="144.02" r="25.9" fill="#c2c2c2"/>
  <path d="M244.94 170.29c-14.49 0-26.27-11.79-26.27-26.27s11.79-26.27 26.27-26.27c14.49 0 26.27 11.79 26.27 26.27s-11.78 26.27-26.27 26.27zm0-51.81c-14.08 0-25.54 11.46-25.54 25.54s11.46 25.54 25.54 25.54 25.54-11.46 25.54-25.54-11.45-25.54-25.54-25.54zm-7.87 35.03l-.42-.6c.1-.07 2.51-1.72 4.8-1.72 2.33 0 4.11 1.68 4.19 1.76l-.51.53c-.02-.02-1.65-1.55-3.68-1.55-2.06-.01-4.36 1.56-4.38 1.58zm5.06-9.21l1.37 4.55 4.09-2.5z"/>
  <path d="M252.01 136.72a5.06 5.06 0 0 0-3.03 4.63 5.05 5.05 0 1 0 10.1 0c0-.75-.16-1.46-.46-2.1l-6.61-2.53zm-12.91-4.93c-1.75.79-2.98 2.56-2.98 4.61a5.05 5.05 0 1 0 10.1 0c0-.73-.16-1.42-.43-2.05l-6.69-2.56z" fill="#fff"/>
  <path d="M254.04 146.77c-2.99 0-5.42-2.43-5.42-5.42 0-2.15 1.28-4.1 3.25-4.97l.14-.06 6.9 2.64.06.14c.33.71.49 1.47.49 2.25 0 2.99-2.43 5.42-5.42 5.42zm-2.01-9.65c-1.63.78-2.67 2.42-2.67 4.23a4.69 4.69 0 0 0 4.68 4.68 4.69 4.69 0 0 0 4.68-4.68 4.64 4.64 0 0 0-.36-1.81l-6.33-2.42zm-10.85 4.69c-2.99 0-5.42-2.43-5.42-5.42 0-2.13 1.25-4.07 3.19-4.94l.14-.06 6.98 2.67.06.14c.31.69.46 1.43.46 2.19a5.41 5.41 0 0 1-5.41 5.42zm-2.06-9.62c-1.6.78-2.62 2.42-2.62 4.21a4.69 4.69 0 0 0 4.68 4.68 4.69 4.69 0 0 0 4.68-4.68c0-.61-.12-1.2-.34-1.76l-6.4-2.45z"/>
  <ellipse transform="matrix(.3505 -.9366 .9366 .3505 32.0317 329.9987)" cx="253.95" cy="141.9" rx="1.93" ry=".55"/>
  <ellipse transform="matrix(.3505 -.9366 .9366 .3505 28.3249 314.7325)" cx="241.09" cy="136.94" rx="1.93" ry=".55"/>
  <path d="M261.48 140.76a.4.4 0 0 1-.15-.03l-24.99-9.55c-.21-.08-.32-.32-.24-.53s.32-.32.53-.24l24.99 9.55c.21.08.32.32.24.53a.41.41 0 0 1-.38.27z"/>
  <path d="M223.25 205.84H106.06c-3.8 0-6.9-3.11-6.9-6.9V7.71c0-3.8 3.11-6.9 6.9-6.9h117.19c3.8 0 6.9 3.11 6.9 6.9v191.23c.01 3.79-3.1 6.9-6.9 6.9z" fill="#00b38f"/>
  <g fill="#ff757c">
    <circle cx="131.86" cy="21.93" r="3.49"/>
    <circle cx="144.17" cy="21.93" r="3.49"/>
    <circle cx="144.17" cy="62.17" r="3.49"/>
    <circle cx="131.86" cy="147.42" r="3.49"/>
    <circle cx="144.17" cy="147.42" r="3.49"/>
  </g>
  <path d="M223.25.39H106.06a7.32 7.32 0 0 0-7.31 7.31v191.23a7.32 7.32 0 0 0 7.31 7.31h117.19a7.32 7.32 0 0 0 7.31-7.31V7.71a7.31 7.31 0 0 0-7.31-7.32zm6.49 81.76l-130.16.37V41.09h130.17v41.06zM99.58 83.34l130.17-.37v43.08H99.58V83.34zm6.48-82.12h117.19a6.5 6.5 0 0 1 6.49 6.49v32.55H99.58V7.71c0-3.58 2.91-6.49 6.48-6.49zm117.19 204.21H106.06a6.5 6.5 0 0 1-6.49-6.49v-72.05h130.17v72.05a6.5 6.5 0 0 1-6.49 6.49z"/>
  <use href="#A"/>
  <use href="#A" x="4.966" y=".009"/>
  <use href="#A" x="9.934" y=".002"/>
  <use href="#A" x="14.894" y=".002"/>
  <use href="#A" x="19.854" y=".003"/>
  <use href="#B"/>
  <use href="#C"/>
  <use href="#C" x="12.31"/>
  <use href="#A" x=".006" y="40.238"/>
  <use href="#A" x="4.97" y="40.248"/>
  <use href="#A" x="9.938" y="40.241"/>
  <use href="#A" x="14.898" y="40.242"/>
  <use href="#A" x="19.858" y="40.242"/>
  <use href="#B" y="40.23"/>
  <use href="#C" y="40.23"/>
  <use href="#C" x="12.31" y="40.23"/>
  <use href="#A" x=".008" y="82.87"/>
  <use href="#A" x="4.968" y="82.87"/>
  <use href="#A" x="9.936" y="82.863"/>
  <use href="#A" x="14.896" y="82.864"/>
  <use href="#A" x="19.856" y="82.864"/>
  <use href="#D"/>
  <use href="#E"/>
  <use href="#E" x="12.31"/>
  <use href="#A" x=".005" y="125.479"/>
  <use href="#A" x="4.967" y="125.492"/>
  <use href="#A" x="9.934" y="125.485"/>
  <use href="#A" x="14.894" y="125.485"/>
  <use href="#A" x="19.852" y="125.472"/>
  <use href="#D" y="42.62"/>
  <use href="#E" y="42.62"/>
  <use href="#E" x="12.31" y="42.62"/>
  <use href="#A" x=".007" y="164.442"/>
  <use href="#A" x="4.968" y="164.442"/>
  <use href="#A" x="9.935" y="164.436"/>
  <use href="#A" x="14.895" y="164.436"/>
  <use href="#A" x="19.855" y="164.421"/>
  <use href="#D" y="81.57"/>
  <use href="#E" y="81.57"/>
  <use href="#E" x="12.31" y="81.57"/>
  <path d="M170.17 71.2l-.18 11.82h-11.02l-.18-11.64c-4.25 2.15-7.17 6.55-7.17 11.64 0 5.23 3.08 9.75 7.53 11.83h0v70.3h10.66V95.01c4.65-2 7.9-6.61 7.9-11.99-.01-5.23-3.09-9.74-7.54-11.82z" fill="#ffc04c"/>
  <path d="M160.75 162.99h7.44V95.65h-7.44v67.34zm.83-66.51h5.79v65.68h-5.79V96.48zm16.46-14.91c-.51-4.84-3.73-9.12-8.28-11.02v12.06H159.2v-11.9c-10.39 4.65-10.66 19.36-.46 24.4v70.45h11.48V95.28c5.26-2.36 8.47-7.97 7.82-13.71zm-7.46 1.87V74.9c7.82 5.55 3.68 18.28-5.93 18.19-9.38.1-13.66-12.13-6.29-17.9v8.26h12.22zm-.9 11.19l-.25.11v69.99h-9.83V94.58c-9.39-4.05-10.11-17.55-1.19-22.51v2.07c-8.59 6.05-4.23 19.79 6.29 19.77 10.74.02 14.95-14.21 5.92-20.02v-2.02c9.27 4.75 8.72 18.8-.94 22.76z"/>
  <path d="M34.77 156.51l-26.64-31.6 14.33 1.29-19.47-24.81 39.49 31.24-11.2.55 17.64 14.88z" fill="#ffc04c"/>
  <path d="M34.68 157.05L7.17 124.41l14.38 1.29L.51 98.91l43.1 34.08-11.26.55 17.28 14.58-14.95 8.93zM9.09 125.41l25.77 30.56L48.21 148l-18-15.18 11.16-.55-35.9-28.39 17.91 22.81-14.29-1.28z"/>
  <path d="M31.09 160.37s-1.65-2.94-.73-7.53 4.23-9.74 11.02-10.1c3.94-.21 6.84 1.44 8.8 2.5l3.42 1.81-22.51 13.32z" fill="#fff"/>
  <path d="M30.73 160.57c-.07-.13-1.72-3.13-.78-7.82.96-4.8 4.46-10.06 11.41-10.44 4.06-.22 7.16 1.28 9.05 2.58l-.47.68c-1.78-1.22-4.71-2.64-8.54-2.43-6.47.35-9.74 5.28-10.64 9.77-.87 4.37.67 7.22.69 7.25l-.72.41z"/>
  <path d="M297.86 90.37l26.64-31.6-14.33 1.29 19.47-24.81-39.5 31.24 11.21.55-17.64 14.88z" fill="#ffc04c"/>
  <path d="M283 81.98l17.28-14.58-11.26-.55 43.1-34.08-21.04 26.79 14.38-1.29-27.51 32.64L283 81.98zm26.25-21.43l17.91-22.81-35.9 28.39 11.16.55-18 15.18 13.35 7.97 25.77-30.56-14.29 1.28z"/>
  <path d="M305.93 92.24s1.54-3.49 0-8.55-5.82-10.48-13.5-10.15c-4.46.19-7.53 2.37-9.62 3.78l-3.65 2.41 20.16 14.31 6.61-1.8z" fill="#fff"/>
  <path d="M306.35 92.43c.07-.15 1.59-3.7.02-8.87-1.61-5.29-6.12-10.82-13.97-10.48-4.59.2-7.91 2.22-9.9 3.89l.6.72c1.87-1.57 5.01-3.48 9.34-3.67 7.32-.32 11.53 4.87 13.04 9.82 1.46 4.82.03 8.19.02 8.23l.85.36z"/>
  <path d="M131.04 176.17c-1.56 0-3.06.26-4.47.72-4.58-6.86-12.39-11.38-21.25-11.38-14.1 0-25.54 11.43-25.54 25.54 0 14.1 11.43 25.54 25.54 25.54 9.39 0 17.59-5.07 22.03-12.62a14.04 14.04 0 0 0 3.69.49c7.81 0 14.15-6.33 14.15-14.15s-6.34-14.14-14.15-14.14z" fill="#fff"/>
  <path d="M131.04 175.75c-1.48 0-2.92.22-4.3.65-4.85-7.08-12.83-11.3-21.42-11.3-14.31 0-25.95 11.64-25.95 25.95S91.01 217 105.32 217a25.91 25.91 0 0 0 13.07-3.53c3.75-2.19 6.91-5.31 9.15-9.02a14.58 14.58 0 0 0 3.5.42c8.03 0 14.56-6.53 14.56-14.56s-6.53-14.56-14.56-14.56zm0 28.3a13.63 13.63 0 0 1-9.5-3.82l-.03-.03-.56.61.02.02a14.49 14.49 0 0 0 5.74 3.39c-4.56 7.39-12.71 11.95-21.4 11.95-13.85 0-25.12-11.27-25.12-25.12s11.27-25.12 25.12-25.12c8.23 0 15.89 4.01 20.61 10.75-1.83.69-3.52 1.74-4.96 3.12l.57.6c2.57-2.46 5.94-3.82 9.5-3.82a13.75 13.75 0 0 1 13.73 13.73c.01 7.58-6.15 13.74-13.72 13.74z"/>
  <path d="M230.75 76.62c1.06-1.15 1.89-2.42 2.5-3.77 8.14 1.3 16.77-1.37 22.79-7.88 9.58-10.35 8.95-26.51-1.41-36.09-10.35-9.58-26.51-8.95-36.09 1.41-6.38 6.89-8.23 16.36-5.7 24.74a14.3 14.3 0 0 0-2.87 2.38 14.14 14.14 0 0 0 .78 19.99 14.17 14.17 0 0 0 20-.78z" fill="#fff"/>
  <path d="M231.06 76.9c1-1.08 1.82-2.3 2.44-3.6a25.92 25.92 0 0 0 22.84-8.05c9.72-10.5 9.08-26.96-1.43-36.67-10.5-9.72-26.96-9.08-36.67 1.43A25.99 25.99 0 0 0 211.95 42c-.94 4.24-.79 8.67.41 12.84a14.52 14.52 0 0 0-2.69 2.28c-5.45 5.89-5.09 15.12.8 20.58 5.91 5.45 15.14 5.09 20.59-.8zm-20.77-19.21a13.66 13.66 0 0 1 9.25-4.38h.04l-.07-.82h-.03c-2.28.14-4.46.8-6.39 1.92-2.33-8.36-.15-17.45 5.75-23.82 9.41-10.17 25.33-10.79 35.5-1.38s10.79 25.33 1.38 35.5c-5.59 6.04-13.73 8.94-21.89 7.83.74-1.81 1.11-3.76 1.08-5.76l-.83.01c.06 3.56-1.23 6.96-3.65 9.57-5.14 5.56-13.85 5.9-19.41.76a13.8 13.8 0 0 1-.73-19.43zm42.25 93.4c-.15-.13-.38-.12-.52.03-.13.15-.12.38.03.52l17.64 15.62c.07.06.16.09.24.09.1 0 .2-.04.28-.12.13-.15.12-.38-.03-.52l-17.64-15.62zm21.8 10.24l-20.39-11.39c-.18-.1-.4-.04-.5.14s-.04.4.14.5l20.39 11.39c.06.03.12.05.18.05a.37.37 0 0 0 .32-.19c.1-.17.03-.4-.14-.5zm-39.01-17.49l-21.68 3.49c-.2.03-.34.22-.3.42.03.18.19.31.36.31h.06l21.68-3.49c.2-.03.34-.22.3-.42-.03-.21-.22-.34-.42-.31zm.82-1.84l-21.86-1.65c-.2-.01-.38.14-.39.34-.02.2.14.38.34.39l21.86 1.65h.03c.19 0 .35-.15.37-.34a.37.37 0 0 0-.35-.39z"/>
  <defs>
    <path id="A" d="M180.624 26.589l10.103-9.735.576.598-10.103 9.735z"/>
    <path d="M119.56 25.84c2.15 0 3.9-1.75 3.9-3.9s-1.75-3.9-3.9-3.9-3.9 1.75-3.9 3.9a3.9 3.9 0 0 0 3.9 3.9zm0-6.98a3.08 3.08 0 1 1 0 6.16 3.08 3.08 0 1 1 0-6.16z" id="B"/>
    <path d="M131.86 25.84c2.15 0 3.9-1.75 3.9-3.9s-1.75-3.9-3.9-3.9-3.9 1.75-3.9 3.9 1.75 3.9 3.9 3.9zm0-6.98a3.08 3.08 0 1 1-3.08 3.08c.01-1.7 1.39-3.08 3.08-3.08z" id="C"/>
    <path d="M119.56 100.89c-2.15 0-3.9 1.75-3.9 3.9s1.75 3.9 3.9 3.9 3.9-1.75 3.9-3.9-1.75-3.9-3.9-3.9zm0 6.98a3.08 3.08 0 1 1 3.08-3.08c-.01 1.7-1.39 3.08-3.08 3.08z" id="D"/>
    <path d="M131.86 100.89c-2.15 0-3.9 1.75-3.9 3.9s1.75 3.9 3.9 3.9 3.9-1.75 3.9-3.9c.01-2.15-1.74-3.9-3.9-3.9zm0 6.98a3.08 3.08 0 1 1 0-6.16 3.08 3.08 0 1 1 0 6.16z" id="E"/>
  </defs>
</svg>
