<svg xmlns="http://www.w3.org/2000/svg" viewBox="0 0 1185 632">
  <style>
    .B{fill:#cef0ff} /* bubbles color */
    .C{fill:#ace4f5} /* bubbles outline color */
    .D,.D1,.J{fill:#364548} /* outline, wave color, eye cross color */
    .E{fill:#23a3c1} /* containers color */
    .F{fill:#1e91b4} /* whale color 1 */
    .G{fill:#1c81a5} /* whale color 2 */
    .I{fill:#d3eceb} /* eye color */
    .H{fill:#d3eceb} /* whale color 3 */
    .I{fill:#bdd8d7} /* whale color 4 */
    .K{fill:#37b0d9} /* whale color 5 */
    .L{fill:#23a0c8} /* whale color 6 */
  </style>
  <path class="F" d="M60.5 421.5s33-86 154-76c36-83 92-178 211-252 216.44-139.56 679.29-142.42 658 247h-682c-60 2-109 17-134 38 50 61 28 151 0 173-58-38-73-98-72-116-18 11-89 17-135-14z"/>
  <path class="G" d="M785.5 10.5c-121-8-241 9-360 83s-175 169-211 252c-121-10-154 76-154 76 41.33 27.85 102.84 25.84 127.96 17.16C342.67 214.04 596.85 112.2 704.5 98.5c110-14 186-17 264 57 66.49 63.08 69.03 143.59 68.34 185.18l46.66-.18c19-246-177-322-298-330z"/>
  <path class="H" d="M785.5 10.5c-28.47-1.88-56.89-2.38-85.26-1.08C763.45 28.84 831.81 89.36 840.5 141.5c0 0 27-12 91-14 37.92-1.19 73.39-.61 95.99.05C963.89 46.42 860.35 15.45 785.5 10.5z"/>
  <path class="I" d="M774.61 9.85c-24.77-1.32-49.59-1.56-74.37-.43 43.14 13.25 88.68 45.65 116.01 81.47 42.5 1.73 80.39 11.56 117.53 36.54 37.06-1.09 71.56-.53 93.71.12C967.52 51.5 869.36 14.3 774.61 9.85z"/>
  <circle class="I" cx="790" cy="174" r="25"/>
  <path class="J" d="M800.63 163.4c-.33-.35-.89-.36-1.24-.03l-9.87 9.4-9.4-9.87c-.33-.35-.89-.36-1.24-.03s-.36.89-.03 1.24l9.4 9.87-9.87 9.4c-.35.33-.36.89-.03 1.24s.89.36 1.24.03l9.87-9.4 9.4 9.87c.33.35.89.36 1.24.03s.36-.89.03-1.24l-9.4-9.87 9.87-9.4c.35-.34.37-.89.03-1.24z"/>
  <path class="K" d="M214.5 345.5c-121-10-154 76-154 76 46 31 117 25 135 14-1 18 14 78 72 116 28-22 50-112 0-173 25-21 74-36 134-38h682c2.34-30.36 1.41-58.13-2.25-83.5H260.46c-18.85 30.02-33.59 59.97-45.96 88.5z"/>
  <path class="L" d="M64.59 424.11c23.7 14.27 51.76 19.82 79.17 20.27 14.61.14 31.29-1.22 44.7-5.72C238.71 365.47 299.58 305.32 362.53 257H260.46c-17.71 28.19-32.74 57.98-45.96 88.5-121-10-154 76-154 76 1.34.91 2.71 1.77 4.09 2.61zm1019.45-91.62c1.51-25.02.79-50.8-2.79-75.49h-53.17c8.64 32.88 9.1 63.06 8.75 83.68l46.66-.18.55-8.01z" />
  <g>
    <path class="D" d="M1025.54 112.6C970.92 45.46 862.23 5.57 786.03 2.52c-254.25-20.25-479.24 104.02-576.59 334.6-84.54-5.45-140.48 38.17-158.68 87.46 33.52 25.84 95.38 34.64 137.48 22.55 3.09 28.03 28.31 83.7 79.69 114.21 42.54-31.3 52.46-124.59 10.81-181.36 26.04-18.1 71.11-29.74 122.89-31.48l689.28-.04c8.95-93.71-12.95-176.13-65.37-235.86zm50.49 219.93c-210.21.93-669.84-.02-674.51-.03-64.38 2.69-114.17 16.77-145.21 44.96l5.01 6.11c40.79 50.81 32.63 123.08 5.37 157.68-50.53-35.97-64.08-89.34-63.19-105.31l.85-15.22-13 7.95c-15.3 9.35-77.81 14.44-120.52-10.17 26.52-49.3 85.5-72.24 148.75-64.56C299.94 142.4 523.4-5.38 784.97 18.49c33.95 2.24 149.73 16.23 226.07 101.88-127.91-7.24-185.11 16.02-187.56 17.04a7.5 7.5 0 0 0-4.02 9.8c1.2 2.88 3.99 4.61 6.93 4.61.96 0 1.93-.18 2.87-.57.08-.32 62.93-24.5 194.73-15.09 39.28 52.03 56.77 117.97 52.04 196.37z"/>
    <path class="D1" d="M0 262h1185s-79-12-70-47c-26 33-125 50-189 10-27 39-189 36-232-7-38 48-170 43-203-1-30 42-203 49-230 8-37 28-147 40-190-12 15 39-71 49-71 49z"/>
  </g>
  <g class="D">
    <path d="M406 370h99v97h-99z" class="E"/>
    <path d="M507 469H404V368h103v101zm-99-4h95v-93h-95v93zm8-85h7v76h-7zm15 0h7v76h-7zm14 0h7v76h-7zm14 0h7v76h-7zm14 0h7v76h-7zm14 0h7v76h-7z" class="D"/>
    <animateTransform attributeName="transform" attributeType="XML" type="translate" values="0 0;-1 -1;0 3;-3 4;0 0" dur="2.5s" repeatCount="indefinite"/>
  </g>
  <g class="D">
    <path d="M570.466 498.17l88.852 43.669-42.787 87.058-88.852-43.669z" class="E"/>
    <path d="M617.45 631.54l-92.44-45.43 44.55-90.64L662 540.9l-44.55 90.64zm-87.09-47.26l85.26 41.9 41.02-83.46-85.26-41.9-41.02 83.46zm44.67-72.727l6.283 3.088-33.524 68.21-6.282-3.088z"/>
    <use href="#B"/>
    <use href="#B" x="12.572" y="6.173"/>
    <use href="#B" x="25.13" y="12.351"/>
    <use href="#B" x="37.702" y="18.525"/>
    <path d="M638.749 542.875l6.282 3.088-33.524 68.21-6.282-3.088z"/>
    <animateTransform attributeName="transform" attributeType="XML" type="translate" values="0 0;4 -1;0 0;2 1;0 0" dur="3s" repeatCount="indefinite"/>
  </g>
  <g class="D">
    <path d="M692.88 441.373l93.407 32.818-32.155 91.52-93.407-32.819z" class="E"/>
    <path d="M755.35 568.22l-97.18-34.14 33.48-95.29 97.18 34.14-33.48 95.29zm-92.08-36.59l89.63 31.49 30.83-87.74-89.63-31.49-30.83 87.74z"/>
    <use href="#C"/>
    <use href="#C" x="14.151" y="4.97"/>
    <path d="M726.36 463.738l6.605 2.321-25.194 71.706-6.605-2.32z"/>
    <use href="#C" x="40.572" y="14.253"/>
    <path d="M752.781 473.02l6.604 2.321-25.194 71.706-6.604-2.321z"/>
    <use href="#C" x="66.993" y="23.535"/>
    <animateTransform attributeName="transform" attributeType="XML" type="translate" values="0 0;1 2;3 0;0 -2;0 0" dur="4s" repeatCount="indefinite"/>
  </g>
  <g class="D">
    <path d="M827.668 485.442l98.01-13.969 13.687 96.03-98.01 13.969z" class="E"/>
    <path d="M941.61 569.23l-101.97 14.53-14.25-99.99 101.97-14.53 14.25 99.99zm-98.58 10.01l94.05-13.4-13.12-92.07-94.05 13.4 13.12 92.07z"/>
    <use href="#D"/>
    <use href="#D" x="14.85" y="-2.11"/>
    <use href="#D" x="28.71" y="-4.091"/>
    <use href="#D" x="42.57" y="-6.061"/>
    <use href="#D" x="56.429" y="-8.042"/>
    <use href="#D" x="70.29" y="-10.012"/>
    <animateTransform attributeName="transform" attributeType="XML" type="translate" values="0 0;1 -3;0 0;2 -3;0 0" dur="3.5s" repeatCount="indefinite"/>
  </g>
  <g class="D">
    <path d="M795.092 357.227l98.812-6.158 6.033 96.816-98.812 6.158z" class="E"/>
    <path d="M902.04 449.7l-102.8 6.41-6.29-100.8 102.8-6.41 6.29 100.8zm-99.05 2.17l94.82-5.91-5.79-92.82-94.82 5.91 5.79 92.82z"/>
    <use href="#E"/>
    <use href="#E" x="14.97" y="-0.929"/>
    <use href="#E" x="28.941" y="-1.798"/>
    <use href="#E" x="42.922" y="-2.668"/>
    <use href="#E" x="56.892" y="-3.547"/>
    <use href="#E" x="70.863" y="-4.416"/>
    <animateTransform attributeName="transform" attributeType="XML" type="translate" values="0 0;0 2;0 0;0 -3;0 0" dur="3s" repeatCount="indefinite"/>
  </g>
  <g>
    <circle cx="640" cy="471" r="10.5" class="B"/>
    <path d="M640 481.88c-6 0-10.88-4.88-10.88-10.88S634 460.12 640 460.12 650.88 465 650.88 471 646 481.88 640 481.88zm0-21c-5.58 0-10.12 4.54-10.12 10.12s4.54 10.12 10.12 10.12 10.12-4.54 10.12-10.12-4.54-10.12-10.12-10.12z" class="C"/>
    <animateTransform attributeName="transform" attributeType="XML" type="translate" values="0 0;2 3;0 0" dur="3s" repeatCount="indefinite"/>
  </g>
  <g>
    <circle cx="668.81" cy="438.81" r="5.97" class="B"/>
    <use href="#F" class="C"/>
    <animateTransform attributeName="transform" attributeType="XML" type="translate" values="0 0;3 1;0 0" dur="2.5s" repeatCount="indefinite"/>
  </g>
  <g>
    <circle cx="610.81" cy="409.81" r="7.91" class="B"/>
    <path d="M610.81 418c-4.51 0-8.19-3.67-8.19-8.19s3.67-8.19 8.19-8.19 8.19 3.67 8.19 8.19-3.67 8.19-8.19 8.19zm0-15.81c-4.2 0-7.62 3.42-7.62 7.62s3.42 7.62 7.62 7.62 7.62-3.42 7.62-7.62-3.41-7.62-7.62-7.62z" class="C"/>
    <animateTransform attributeName="transform" attributeType="XML" type="translate" values="0 0;6 3;0 0" dur="2.3s" repeatCount="indefinite"/>
  </g>
  <g>
    <circle cx="512.31" cy="357.31" r="5.49" class="B"/>
    <use href="#G" class="C"/>
    <animateTransform attributeName="transform" attributeType="XML" type="translate" values="0 0;6 0;0 0" dur="2.7s" repeatCount="indefinite"/>
  </g>
  <g>
    <circle cx="415.12" cy="363.5" r="3.38" class="B"/>
    <path d="M415.12 367c-1.93 0-3.5-1.57-3.5-3.5s1.57-3.5 3.5-3.5 3.5 1.57 3.5 3.5-1.57 3.5-3.5 3.5zm0-6.76a3.26 3.26 0 0 0 0 6.52 3.26 3.26 0 0 0 0-6.52z" class="C"/>
    <animateTransform attributeName="transform" attributeType="XML" type="translate" values="0 0;1 6;0 0" dur="2.2s" repeatCount="indefinite"/>
  </g>
  <g>
    <circle cx="675.31" cy="366.31" r="7.42" class="B"/>
    <path d="M675.31,374c-4.24,0-7.69-3.45-7.69-7.69s3.45-7.69,7.69-7.69s7.69,3.45,7.69,7.69S679.55,374,675.31,374z M675.31,359.16c-3.95,0-7.16,3.21-7.16,7.16s3.21,7.16,7.16,7.16s7.16-3.21,7.16-7.16S679.26,359.16,675.31,359.16z" class="C"/>
    <animateTransform attributeName="transform" attributeType="XML" type="translate" values="0 0;1 7;0 0" dur="2.8s" repeatCount="indefinite"/>
  </g>
  <g>
    <circle cx="737.81" cy="401.81" r="5.97" class="B"/>
    <use href="#F" x="69" y="-37" class="C"/>
    <animateTransform attributeName="transform" attributeType="XML" type="translate" values="0 0;6 1;0 0" dur="2.4s" repeatCount="indefinite"/>
  </g>
  <g>
    <circle cx="782.81" cy="445.81" r="6.94" class="B"/>
    <path d="M782.81 453a7.2 7.2 0 0 1-7.19-7.19c0-3.97 3.22-7.19 7.19-7.19s7.19 3.22 7.19 7.19-3.22 7.19-7.19 7.19zm0-13.88a6.7 6.7 0 0 0-6.69 6.69 6.7 6.7 0 0 0 6.69 6.69 6.7 6.7 0 0 0 6.69-6.69 6.7 6.7 0 0 0-6.69-6.69z" class="C"/>
    <animateTransform attributeName="transform" attributeType="XML" type="translate" values="0 0;0 5;0 0" dur="2.9s" repeatCount="indefinite"/>
  </g>
  <g>
    <circle cx="942.31" cy="458.31" r="10.32" class="B"/>
    <path d="M942.31,469c-5.89,0-10.69-4.79-10.69-10.69s4.79-10.69,10.69-10.69S953,452.42,953,458.31 S948.21,469,942.31,469z M942.31,448.36c-5.49,0-9.95,4.46-9.95,9.95s4.46,9.95,9.95,9.95s9.95-4.46,9.95-9.95 S947.8,448.36,942.31,448.36z" class="C"/>
    <animateTransform attributeName="transform" attributeType="XML" type="translate" values="0 0;5 5;0 0" dur="2.5s" repeatCount="indefinite"/>
  </g>
  <g>
    <circle cx="908.31" cy="418.31" r="5.49" class="B"/>
    <use href="#G" x="396" y="61" class="C"/>
    <animateTransform attributeName="transform" attributeType="XML" type="translate" values="0 0;8 1;0 0;1 8;0 0" dur="4.3s" repeatCount="indefinite"/>
  </g>
  <g>
    <circle cx="953.31" cy="374.31" r="5.49" class="B"/>
    <use href="#G" x="441" y="17" class="C"/>
    <animateTransform attributeName="transform" attributeType="XML" type="translate" values="0 0;1 1;0 0" dur="2.1s" repeatCount="indefinite"/>
  </g>
  <defs >
    <path id="B" d="M588.489 518.172l6.283 3.088-33.524 68.21-6.283-3.088z"/>
    <path id="C" d="M698.998 454.126l6.605 2.321-25.194 71.706-6.605-2.321z"/>
    <path id="D" d="M838.98 493.927l6.93-.988 10.724 75.24-6.93.988z"/>
    <path id="E" d="M805.696 366.584l6.987-.435 4.727 75.856-6.987.435z"/>
    <path id="F" d="M668.81 445c-3.41 0-6.19-2.78-6.19-6.19s2.78-6.19 6.19-6.19 6.19 2.78 6.19 6.19-2.78 6.19-6.19 6.19zm0-11.95c-3.18 0-5.76 2.58-5.76 5.76s2.58 5.76 5.76 5.76 5.76-2.58 5.76-5.76-2.58-5.76-5.76-5.76z"/>
    <path id="G" d="M512.31 363c-3.14 0-5.69-2.55-5.69-5.69s2.55-5.69 5.69-5.69 5.69 2.55 5.69 5.69-2.55 5.69-5.69 5.69zm0-10.98a5.31 5.31 0 0 0-5.3 5.3 5.31 5.31 0 0 0 5.3 5.3 5.31 5.31 0 0 0 5.3-5.3 5.31 5.31 0 0 0-5.3-5.3z"/>
  </defs>
</svg>
