<svg xmlns="http://www.w3.org/2000/svg" width="682.667" height="682.667" viewBox="0 0 512 512" preserveAspectRatio="xMidYMid meet"><path d="M66.5.7c-7.4 1.1-15.7 3.8-24.5 8-8.2 4-10.7 5.9-19 14.2C12.2 33.7 6.8 42.7 2.8 56.6L.5 64.5V256v191.5l2.3 7.9c4 13.9 9.4 22.9 20.2 33.7 8.3 8.3 10.8 10.2 19 14.2 18.7 9-2.4 8.2 214 8.2h191.5l7.9-2.3c13.9-4 22.9-9.4 33.6-20.2 10.8-10.7 16.2-19.7 20.2-33.6l2.3-7.9V256 64.5l-2.3-7.9c-4-13.9-9.4-22.9-20.2-33.6-10.5-10.6-19.3-15.9-33-20.2L448.5.5 259 .4C154.8.3 68.2.5 66.5.7zM288 134v19h-21-21v-19-19h21 21v19zm-99 46v19h-20.5H148v-19-19h20.5H189v19zm50 0v19h-21-21v-19-19h21 21v19zm49 0v19h-21-21v-19-19h21 21v19zm108.6 2.3c10 9.4 15.5 17.5 18.5 27.1l2.2 7.1 12.1-.3c14.3-.4 23.6 1.2 32.8 5.7 10.3 5 10.4 5.2 8.4 10.5-2.6 6.9-11.1 18.1-16.9 22.5-11.2 8.4-22.3 12.1-36.3 12.1h-8.1l-5.2 10.7c-7.2 15-13.3 25.1-22 36.7-27.5 37-66.1 62.3-113.8 74.6-32.7 8.5-76.1 10.3-105.1 4.4C112 383 77.7 346.5 68.5 292.5c-1.8-10.2-2.5-34.2-1.1-38.2l.7-2.2 144.2-.3 144.2-.3 8.5-3.1c4.7-1.7 8.4-3.5 8.3-4s-1.4-3.7-2.8-7c-6.7-16.4-5.3-35.9 4-54.4 1.5-3 3.8-7 5.2-8.8l2.4-3.2 3.1 1.7c1.7 1 6.8 5.3 11.4 9.6zM140 226v19h-21-21v-19-19h21 21v19zm49 0v19h-20.5H148v-19-19h20.5H189v19zm50 0v19h-21-21v-19-19h21 21v19zm49 0v19h-21-21v-19-19h21 21v19zm50 0v19h-21-21v-19-19h21 21v19z"/></svg>
