<svg xmlns="http://www.w3.org/2000/svg" width="800" height="800" viewBox="0 0 32 32" fill="none">
  <circle cx="16.002" cy="15.998" fill="#1794d4" r="15.998"/>
  <path d="M18.287 5.714h-2.285v2.285h2.285zM9.145 9.142h2.285v2.285H9.145zm-4.569 7.932c.195 3.315 2.17 8.066 9.14
           8.066 7.771 0 11.237-5.714 11.999-8.571.952 0 3.085-.571 4-2.857-.571-.571-2.857-.571-4 0
           0-.914-.571-2.857-1.714-3.428-.762.762-1.943 2.743-.571 4.571-.571 1.143-2.095 1.143-2.857
           1.143H5.652c-.605 0-1.111.472-1.076 1.076zm3.427-4.504H5.717v2.285h2.285zm1.142 0h2.285v2.285H9.145zm5.714
           0h-2.285v2.285h2.285zm1.143 0h2.285v2.285h-2.285zm5.713
           0H19.43v2.285h2.285zm-6.856-3.428h-2.285v2.285h2.285zm1.143 0h2.285v2.285h-2.285z"
        fill="#fff"/>
</svg>
